# Blender v3.1.2 OBJ File: 'Door.blend'
# www.blender.org
mtllib Door.mtl
o Cube_Cube.001
v 0.527963 1.255670 0.065758
v 0.124969 3.000000 0.065758
v 0.527963 1.255670 -0.065758
v 0.124969 3.000000 -0.065758
v 0.527963 2.339850 -0.065758
v 0.527963 2.339850 0.065758
v 0.599347 2.780943 -0.065758
v 0.599347 2.780943 0.065758
v 0.750000 0.000000 -0.065758
v 0.750000 2.561887 -0.065758
v 0.750000 2.561887 0.065758
v 0.750000 0.000000 0.065758
v 0.426412 1.767108 -0.028215
v 0.426412 1.828412 -0.028215
v 0.426412 1.828412 0.028215
v 0.426412 1.767108 0.028215
v 0.527963 1.255670 -0.133537
v 0.527963 2.339850 -0.133537
v 0.527963 2.339850 0.133537
v 0.527963 1.255670 0.133537
v 0.033504 1.767108 0.028215
v 0.033504 1.828412 0.028215
v 0.034481 2.238299 -0.033460
v 0.034481 1.357221 -0.033460
v 0.034481 2.238299 0.033460
v 0.034481 1.357221 0.033460
v 0.033504 1.767108 -0.028215
v 0.033504 1.828412 -0.028215
v 0.426412 1.357221 -0.133537
v 0.426412 1.357221 0.133537
v 0.426412 2.238299 0.133537
v 0.426412 2.238299 -0.133537
v 0.000000 0.000000 -0.065758
v 0.000000 0.000000 0.065758
v 0.000000 1.255670 -0.065758
v 0.000000 1.255670 0.065758
v 0.000000 1.255670 -0.133537
v 0.000000 1.255670 0.133537
v 0.000000 1.357221 -0.133537
v 0.000000 1.357221 0.133537
v 0.000000 1.357221 -0.033460
v 0.000000 1.357221 0.033460
v 0.000000 3.000000 -0.065758
v 0.000000 3.000000 0.065758
v 0.000000 2.561887 0.065758
v 0.000000 2.561887 -0.065758
v 0.000000 2.780943 0.065758
v 0.000000 2.780943 -0.065758
v 0.000000 2.339850 0.065758
v 0.000000 2.339850 -0.065758
v 0.000000 2.339850 0.133537
v 0.000000 2.339850 -0.133537
v 0.000000 2.238299 0.133537
v 0.000000 2.238299 -0.133537
v 0.000000 2.238299 0.033460
v 0.000000 2.238299 -0.033460
v 0.000000 1.828412 -0.028215
v 0.000000 1.767108 -0.028215
v 0.000000 1.828412 0.028215
v 0.000000 1.767108 0.028215
v -0.527963 1.255670 0.065758
v -0.124969 3.000000 0.065758
v -0.527963 1.255670 -0.065758
v -0.124969 3.000000 -0.065758
v -0.527963 2.339850 -0.065758
v -0.527963 2.339850 0.065758
v -0.599347 2.780943 -0.065758
v -0.599347 2.780943 0.065758
v -0.750000 0.000000 -0.065758
v -0.750000 2.561887 -0.065758
v -0.750000 2.561887 0.065758
v -0.750000 0.000000 0.065758
v -0.426412 1.767108 -0.028215
v -0.426412 1.828412 -0.028215
v -0.426412 1.828412 0.028215
v -0.426412 1.767108 0.028215
v -0.527963 1.255670 -0.133537
v -0.527963 2.339850 -0.133537
v -0.527963 2.339850 0.133537
v -0.527963 1.255670 0.133537
v -0.033504 1.767108 0.028215
v -0.033504 1.828412 0.028215
v -0.034481 2.238299 -0.033460
v -0.034481 1.357221 -0.033460
v -0.034481 2.238299 0.033460
v -0.034481 1.357221 0.033460
v -0.033504 1.767108 -0.028215
v -0.033504 1.828412 -0.028215
v -0.426412 1.357221 -0.133537
v -0.426412 1.357221 0.133537
v -0.426412 2.238299 0.133537
v -0.426412 2.238299 -0.133537
v 0.610823 1.310038 0.089117
v 0.610823 1.382401 0.089117
v 0.610823 1.310038 -0.089117
v 0.610823 1.382401 -0.089117
v 0.680786 1.310038 0.089117
v 0.680786 1.382401 0.089117
v 0.680786 1.310038 -0.089117
v 0.680786 1.382401 -0.089117
v 0.581438 1.089860 0.089117
v 0.581438 1.411787 0.089117
v 0.581438 1.411787 -0.089117
v 0.581438 1.089860 -0.089117
v 0.710171 1.089860 -0.089117
v 0.710171 1.411787 -0.089117
v 0.710171 1.411787 0.089117
v 0.710171 1.089860 0.089117
v 0.610823 1.310038 0.140497
v 0.610823 1.382401 0.140497
v 0.610823 1.382401 -0.140497
v 0.610823 1.310038 -0.140497
v 0.680786 1.310038 -0.140497
v 0.680786 1.382401 -0.140497
v 0.680786 1.382401 0.140497
v 0.680786 1.310038 0.140497
v 0.599289 1.298108 0.156676
v 0.599289 1.394331 0.156676
v 0.599289 1.394331 -0.156676
v 0.599289 1.298108 -0.156676
v 0.692320 1.298108 -0.156676
v 0.692320 1.394331 -0.156676
v 0.692320 1.394331 0.156676
v 0.692320 1.298108 0.156676
v 0.599289 1.298108 0.247116
v 0.599289 1.394331 0.247116
v 0.599289 1.394331 -0.247116
v 0.599289 1.298108 -0.247116
v 0.692320 1.298108 -0.247116
v 0.692320 1.394331 -0.247116
v 0.692320 1.394331 0.247116
v 0.692320 1.298108 0.247116
v 0.616548 1.315959 0.264733
v 0.616548 1.376480 0.264733
v 0.616548 1.376480 -0.264733
v 0.616548 1.315959 -0.264733
v 0.675061 1.315959 -0.264733
v 0.675061 1.376480 -0.264733
v 0.675061 1.376480 0.264733
v 0.675061 1.315959 0.264733
v 0.645805 1.089860 -0.089117
v 0.645805 1.411787 -0.089117
v 0.645805 1.089860 0.089117
v 0.645805 1.411787 0.089117
v 0.645805 1.310038 -0.089117
v 0.645805 1.382401 -0.089117
v 0.645805 1.310038 0.089117
v 0.645805 1.382401 0.089117
v 0.645805 1.310038 -0.140497
v 0.645805 1.382401 -0.140497
v 0.645805 1.310038 0.140497
v 0.645805 1.382401 0.140497
v 0.645805 1.298108 -0.156676
v 0.645805 1.394331 -0.156676
v 0.645805 1.298108 0.156676
v 0.645805 1.394331 0.156676
v 0.645805 1.298108 -0.247116
v 0.645805 1.394331 -0.247116
v 0.645805 1.298108 0.247116
v 0.645805 1.394331 0.247116
v 0.645805 1.315959 -0.264733
v 0.645805 1.376480 -0.264733
v 0.645805 1.315959 0.264733
v 0.645805 1.376480 0.264733
vt 0.205273 0.795904
vt 0.205273 0.833765
vt 0.183674 0.833765
vt 0.101685 0.795904
vt 0.038151 0.869042
vt 0.038151 0.959350
vt 0.015421 0.959350
vt 0.015420 0.869042
vt 0.038151 0.250684
vt 0.038151 0.380312
vt 0.015420 0.380312
vt 0.015420 0.250684
vt 0.464279 0.116542
vt 0.393431 0.116542
vt 0.393430 0.110751
vt 0.464279 0.110582
vt 0.038151 0.823092
vt 0.015420 0.823092
vt 0.847611 0.492115
vt 0.847611 0.304731
vt 0.859326 0.304731
vt 0.859326 0.492115
vt 0.205273 0.758043
vt 0.075647 0.758043
vt 0.205273 0.532284
vt 0.114023 0.532284
vt 0.075647 0.315261
vt 0.205273 0.315261
vt 0.114023 0.719668
vt 0.561017 0.717850
vt 0.561017 0.530466
vt 0.599392 0.313443
vt 0.599392 0.756225
vt 0.469766 0.717850
vt 0.469766 0.756226
vt 0.847611 0.583366
vt 0.859326 0.583366
vt 0.847122 0.304729
vt 0.847122 0.492113
vt 0.835407 0.492113
vt 0.835408 0.304729
vt 0.847122 0.213480
vt 0.835408 0.213480
vt 0.657368 0.715798
vt 0.657368 0.789497
vt 0.639817 0.807048
vt 0.639817 0.715798
vt 0.809649 0.789497
vt 0.827200 0.807048
vt 0.662251 0.454226
vt 0.662251 0.606507
vt 0.644700 0.624059
vt 0.644700 0.436675
vt 0.735950 0.454226
vt 0.735950 0.436675
vt 0.555591 0.137839
vt 0.487683 0.137839
vt 0.487683 0.128086
vt 0.555591 0.128086
vt 0.464103 0.099018
vt 0.393283 0.100999
vt 0.555591 0.117490
vt 0.487683 0.117490
vt 0.487683 0.097142
vt 0.555591 0.097142
vt 0.555591 0.107737
vt 0.487683 0.107737
vt 0.919195 0.757974
vt 0.919195 0.768569
vt 0.900991 0.839412
vt 0.900991 0.687131
vt 0.928948 0.768569
vt 0.928948 0.757974
vt 0.947151 0.687131
vt 0.947151 0.839412
vt 0.924965 0.591078
vt 0.924965 0.585119
vt 0.942262 0.517380
vt 0.942262 0.591078
vt 0.976503 0.760830
vt 0.976503 0.754870
vt 0.993800 0.687131
vt 0.993800 0.760830
vt 0.964937 0.754870
vt 0.947640 0.687131
vt 0.913399 0.585119
vt 0.896102 0.517380
vt 0.913399 0.591078
vt 0.896102 0.591078
vt 0.393107 0.063131
vt 0.463955 0.063300
vt 0.463955 0.069091
vt 0.393107 0.069091
vt 0.735950 0.606507
vt 0.735950 0.624059
vt 0.847611 0.213480
vt 0.859326 0.213480
vt 0.469766 0.530466
vt 0.469766 0.313442
vt 0.964937 0.760830
vt 0.947640 0.760830
vt 0.393282 0.051567
vt 0.464103 0.053548
vt 0.809649 0.715798
vt 0.827201 0.715798
vt 0.847122 0.583364
vt 0.835407 0.583364
vt 0.443431 0.146302
vt 0.454026 0.146302
vt 0.454026 0.152093
vt 0.443431 0.152093
vt 0.205273 0.719668
vt 0.573354 0.794086
vt 0.469766 0.794086
vt 0.038151 0.980949
vt 0.015421 0.980949
vt 0.491365 0.831947
vt 0.469766 0.831947
vt 0.464279 0.047760
vt 0.393463 0.045610
vt 0.431361 0.140512
vt 0.437152 0.140512
vt 0.437152 0.151107
vt 0.431361 0.151107
vt 0.463922 0.093061
vt 0.393107 0.095211
vt 0.308861 0.795904
vt 0.226872 0.833765
vt 0.061371 0.362593
vt 0.038640 0.362593
vt 0.038640 0.272283
vt 0.061371 0.272284
vt 0.061370 0.980949
vt 0.038640 0.980949
vt 0.038640 0.851324
vt 0.061371 0.851324
vt 0.464279 0.122501
vt 0.393430 0.122332
vt 0.038640 0.408543
vt 0.061371 0.408543
vt 0.847611 0.674616
vt 0.859326 0.674616
vt 0.859326 0.862000
vt 0.847611 0.862000
vt 0.334899 0.758043
vt 0.334899 0.315261
vt 0.296524 0.532284
vt 0.296524 0.719668
vt 0.378516 0.717850
vt 0.340140 0.756225
vt 0.340140 0.313443
vt 0.378516 0.530466
vt 0.847122 0.861999
vt 0.835408 0.861999
vt 0.835407 0.674614
vt 0.847122 0.674614
vt 0.847122 0.953249
vt 0.835408 0.953249
vt 0.639817 0.624547
vt 0.657368 0.642099
vt 0.827200 0.624547
vt 0.809649 0.642099
vt 0.809649 0.454226
vt 0.827200 0.436675
vt 0.827200 0.624059
vt 0.809649 0.606507
vt 0.555591 0.138327
vt 0.555591 0.148081
vt 0.487683 0.148081
vt 0.487683 0.138327
vt 0.464103 0.134066
vt 0.393283 0.132084
vt 0.555591 0.158676
vt 0.487683 0.158676
vt 0.487683 0.179024
vt 0.487683 0.168429
vt 0.555591 0.168429
vt 0.555591 0.179024
vt 0.961419 0.598673
vt 0.943216 0.669515
vt 0.943216 0.517235
vt 0.961419 0.588078
vt 0.971173 0.588078
vt 0.989376 0.517235
vt 0.989376 0.669516
vt 0.971173 0.598673
vt 0.942262 0.664777
vt 0.924965 0.597038
vt 0.993800 0.834529
vt 0.976503 0.766789
vt 0.947640 0.834529
vt 0.964937 0.766789
vt 0.896102 0.664777
vt 0.913399 0.597038
vt 0.393107 0.075051
vt 0.463955 0.074882
vt 0.859326 0.953250
vt 0.847611 0.953250
vt 0.464103 0.084634
vt 0.393282 0.086615
vt 0.443431 0.140512
vt 0.454026 0.140512
vt 0.366178 0.794086
vt 0.038640 0.250684
vt 0.061371 0.250684
vt 0.448167 0.831947
vt 0.464279 0.090422
vt 0.393463 0.092572
vt 0.442942 0.140512
vt 0.442942 0.151107
vt 0.463922 0.140023
vt 0.393107 0.137872
vt 0.353028 0.170737
vt 0.353028 0.115097
vt 0.383833 0.115097
vt 0.383833 0.170737
vt 0.486039 0.109380
vt 0.482406 0.114236
vt 0.473869 0.108471
vt 0.478905 0.104044
vt 0.383833 0.037207
vt 0.383833 0.092848
vt 0.353028 0.092848
vt 0.353028 0.037207
vt 0.638359 0.083737
vt 0.634214 0.094427
vt 0.625035 0.093112
vt 0.629822 0.077972
vt 0.383833 0.026083
vt 0.353028 0.026083
vt 0.383833 0.103972
vt 0.353028 0.103972
vt 0.481939 0.063196
vt 0.481939 0.050689
vt 0.487017 0.045610
vt 0.487017 0.101250
vt 0.603061 0.076319
vt 0.603061 0.088826
vt 0.597983 0.126880
vt 0.597983 0.071240
vt 0.609107 0.088826
vt 0.615153 0.088826
vt 0.620232 0.126880
vt 0.609107 0.126880
vt 0.609107 0.076319
vt 0.609107 0.071240
vt 0.615153 0.076319
vt 0.620232 0.071240
vt 0.469847 0.050689
vt 0.469847 0.063196
vt 0.464768 0.101250
vt 0.464768 0.045610
vt 0.475893 0.063196
vt 0.475893 0.101250
vt 0.475893 0.050689
vt 0.475893 0.045610
vt 0.469082 0.123611
vt 0.464768 0.123501
vt 0.470776 0.105766
vt 0.469909 0.130390
vt 0.469879 0.136792
vt 0.466224 0.137305
vt 0.467020 0.130614
vt 0.634724 0.104474
vt 0.639041 0.113419
vt 0.632877 0.118251
vt 0.625833 0.106293
vt 0.641992 0.078881
vt 0.634858 0.073545
vt 0.478771 0.134973
vt 0.483088 0.143918
vt 0.476924 0.148750
vt 0.478137 0.129819
vt 0.478260 0.124926
vt 0.634090 0.099320
vt 0.625862 0.099891
vt 0.573056 0.142839
vt 0.557736 0.139475
vt 0.570339 0.122129
vt 0.572509 0.122326
vt 0.631002 0.029316
vt 0.631002 0.063496
vt 0.616592 0.050333
vt 0.617684 0.046710
vt 0.622178 0.106806
vt 0.622973 0.100114
vt 0.620721 0.093002
vt 0.626729 0.075267
vt 0.477155 0.101739
vt 0.630363 0.121103
vt 0.633108 0.071240
vt 0.474410 0.151602
vt 0.412234 0.158392
vt 0.412234 0.141761
vt 0.416496 0.144846
vt 0.416496 0.155306
vt 0.402426 0.140512
vt 0.410465 0.140512
vt 0.407482 0.144846
vt 0.402426 0.144846
vt 0.599639 0.067387
vt 0.597983 0.032967
vt 0.613188 0.046124
vt 0.612242 0.050041
vt 0.614681 0.025054
vt 0.615365 0.045928
vt 0.589099 0.101405
vt 0.589099 0.135584
vt 0.574689 0.122421
vt 0.575781 0.118799
vt 0.572778 0.097142
vt 0.573462 0.118016
vt 0.556080 0.105055
vt 0.571285 0.118212
vt 0.614959 0.070751
vt 0.614412 0.050237
vt 0.421553 0.144846
vt 0.421553 0.155306
vt 0.402426 0.155306
vt 0.397369 0.155306
vt 0.397369 0.144846
vt 0.421553 0.140512
vt 0.429592 0.140512
vt 0.426610 0.144846
vt 0.393107 0.158392
vt 0.393107 0.141761
vt 0.402426 0.159641
vt 0.394386 0.159641
vt 0.411745 0.141761
vt 0.411745 0.158392
vt 0.407482 0.155306
vt 0.421553 0.159641
vt 0.413513 0.159641
vt 0.430872 0.141761
vt 0.430872 0.158392
vt 0.426610 0.155306
vt 0.429592 0.159641
vt 0.410465 0.159641
vt 0.413513 0.140512
vt 0.394386 0.140512
vt 0.637742 0.121180
vt 0.636611 0.123512
vt 0.481789 0.151680
vt 0.480658 0.154011
vt 0.641992 0.116441
vt 0.383833 0.181862
vt 0.353028 0.181862
vt 0.486039 0.146940
vn 0.0000 0.0000 -1.0000
vn 0.4192 0.9079 0.0000
vn 0.0000 -1.0000 0.0000
vn 0.0000 0.0128 -0.9999
vn 1.0000 0.0000 0.0000
vn 0.8240 0.5667 0.0000
vn 0.0000 0.0000 1.0000
vn 0.0000 1.0000 0.0000
vn 1.0000 0.0024 0.0000
vn -1.0000 0.0000 0.0000
vn 0.0000 -0.0128 -0.9999
vn 1.0000 -0.0024 0.0000
vn 0.0000 -0.0128 0.9999
vn 0.0000 0.0128 0.9999
vn -0.4192 0.9079 0.0000
vn -0.8240 0.5667 0.0000
vn -1.0000 0.0024 0.0000
vn -1.0000 -0.0024 0.0000
vn 0.8143 0.0000 -0.5805
vn 0.0000 0.8048 -0.5935
vn 0.0000 0.8048 0.5935
vn -0.8143 0.0000 0.5805
vn 0.0000 -0.8048 -0.5935
vn 0.8143 0.0000 0.5805
vn 0.0000 -0.8048 0.5935
vn -0.8143 0.0000 -0.5805
vn 0.7143 0.0000 -0.6998
vn 0.0000 -0.7024 0.7118
vn 0.0000 -0.7024 -0.7118
vn -0.7143 0.0000 0.6998
vn 0.0000 0.7024 0.7118
vn 0.7143 0.0000 0.6998
vn 0.0000 0.7024 -0.7118
vn -0.7143 0.0000 -0.6998
usemtl None
s off
f 48/1/1 43/2/1 4/3/1 7/4/1
f 7/5/2 4/6/2 2/7/2 8/8/2
f 33/9/3 9/10/3 12/11/3 34/12/3
f 41/13/4 58/14/4 27/15/4 24/16/4
f 9/10/5 10/17/5 11/18/5 12/11/5
f 5/19/5 3/20/5 17/21/5 18/22/5
f 10/17/6 7/5/6 8/8/6 11/18/6
f 46/23/1 48/1/1 7/4/1 10/24/1
f 35/25/1 3/26/1 9/27/1 33/28/1
f 3/26/1 5/29/1 10/24/1 9/27/1
f 6/30/7 1/31/7 12/32/7 11/33/7
f 49/34/7 6/30/7 11/33/7 45/35/7
f 50/36/8 5/19/8 18/22/8 52/37/8
f 1/38/5 6/39/5 19/40/5 20/41/5
f 36/42/3 1/38/3 20/41/3 38/43/3
f 39/44/1 29/45/1 17/46/1 37/47/1
f 29/45/1 32/48/1 18/49/1 17/46/1
f 31/50/7 30/51/7 20/52/7 19/53/7
f 53/54/7 31/50/7 19/53/7 51/55/7
f 22/56/8 15/57/8 14/58/8 28/59/8
f 26/60/9 24/16/9 27/15/9 21/61/9
f 27/62/1 28/59/1 14/58/1 13/63/1
f 15/64/7 22/65/7 21/66/7 16/67/7
f 13/68/10 14/69/10 32/70/10 29/71/10
f 15/72/10 16/73/10 30/74/10 31/75/10
f 14/69/10 15/72/10 31/75/10 32/70/10
f 16/73/10 13/68/10 29/71/10 30/74/10
f 21/66/3 27/62/3 13/63/3 16/67/3
f 41/76/8 24/77/8 29/78/8 39/79/8
f 55/80/3 25/81/3 31/82/3 53/83/3
f 25/81/3 23/84/3 32/85/3 31/82/3
f 24/77/8 26/86/8 30/87/8 29/78/8
f 26/86/8 42/88/8 40/89/8 30/87/8
f 23/90/11 28/91/11 57/92/11 56/93/11
f 30/51/7 40/94/7 38/95/7 20/52/7
f 3/20/3 35/96/3 37/97/3 17/21/3
f 1/31/7 36/98/7 34/99/7 12/32/7
f 23/84/3 56/100/3 54/101/3 32/85/3
f 23/90/12 25/102/12 22/103/12 28/91/12
f 32/48/1 54/104/1 52/105/1 18/49/1
f 6/39/8 49/106/8 51/107/8 19/40/8
f 58/108/1 57/109/1 28/110/1 27/111/1
f 5/29/1 50/112/1 46/23/1 10/24/1
f 11/33/7 8/113/7 47/114/7 45/35/7
f 4/6/8 43/115/8 44/116/8 2/7/8
f 8/113/7 2/117/7 44/118/7 47/114/7
f 59/119/13 22/103/13 25/102/13 55/120/13
f 22/121/7 59/122/7 60/123/7 21/124/7
f 42/125/14 26/60/14 21/61/14 60/126/14
f 48/1/1 67/127/1 64/128/1 43/2/1
f 67/129/15 68/130/15 62/131/15 64/132/15
f 33/133/3 34/134/3 72/135/3 69/136/3
f 41/13/4 84/137/4 87/138/4 58/14/4
f 69/136/10 72/135/10 71/139/10 70/140/10
f 65/141/10 78/142/10 77/143/10 63/144/10
f 70/140/16 71/139/16 68/130/16 67/129/16
f 46/23/1 70/145/1 67/127/1 48/1/1
f 35/25/1 33/28/1 69/146/1 63/147/1
f 63/147/1 69/146/1 70/145/1 65/148/1
f 66/149/7 71/150/7 72/151/7 61/152/7
f 49/34/7 45/35/7 71/150/7 66/149/7
f 50/36/8 52/37/8 78/142/8 65/141/8
f 61/153/10 80/154/10 79/155/10 66/156/10
f 36/157/3 38/158/3 80/154/3 61/153/3
f 39/44/1 37/47/1 77/159/1 89/160/1
f 89/160/1 77/159/1 78/161/1 92/162/1
f 91/163/7 79/164/7 80/165/7 90/166/7
f 53/54/7 51/55/7 79/164/7 91/163/7
f 82/167/8 88/168/8 74/169/8 75/170/8
f 86/171/17 81/172/17 87/138/17 84/137/17
f 87/173/1 73/174/1 74/169/1 88/168/1
f 75/175/7 76/176/7 81/177/7 82/178/7
f 73/179/5 89/180/5 92/181/5 74/182/5
f 75/183/5 91/184/5 90/185/5 76/186/5
f 74/182/5 92/181/5 91/184/5 75/183/5
f 76/186/5 90/185/5 89/180/5 73/179/5
f 81/177/3 76/176/3 73/174/3 87/173/3
f 41/76/8 39/79/8 89/187/8 84/188/8
f 55/80/3 53/83/3 91/189/3 85/190/3
f 85/190/3 91/189/3 92/191/3 83/192/3
f 84/188/8 89/187/8 90/193/8 86/194/8
f 86/194/8 90/193/8 40/89/8 42/88/8
f 83/195/11 56/93/11 57/92/11 88/196/11
f 90/166/7 80/165/7 38/95/7 40/94/7
f 63/144/3 77/143/3 37/197/3 35/198/3
f 61/152/7 72/151/7 34/99/7 36/98/7
f 83/192/3 92/191/3 54/101/3 56/100/3
f 83/195/18 88/196/18 82/199/18 85/200/18
f 92/162/1 78/161/1 52/105/1 54/104/1
f 66/156/8 79/155/8 51/107/8 49/106/8
f 58/108/1 87/201/1 88/202/1 57/109/1
f 65/148/1 70/145/1 46/23/1 50/112/1
f 71/150/7 45/35/7 47/114/7 68/203/7
f 64/132/8 62/131/8 44/204/8 43/205/8
f 68/203/7 47/114/7 44/118/7 62/206/7
f 59/207/13 55/208/13 85/200/13 82/199/13
f 82/209/7 81/210/7 60/123/7 59/122/7
f 42/211/14 60/212/14 81/172/14 86/171/14
f 101/213/10 102/214/10 103/215/10 104/216/10
f 147/217/3 97/218/3 116/219/3 151/220/3
f 105/221/5 106/222/5 107/223/5 108/224/5
f 95/225/10 96/226/10 111/227/10 112/228/10
f 141/229/3 105/221/3 108/224/3 143/230/3
f 142/231/8 103/215/8 102/214/8 144/232/8
f 93/233/7 94/234/7 102/235/7 101/236/7
f 96/237/1 95/238/1 104/239/1 103/240/1
f 145/241/1 99/242/1 105/243/1 141/244/1
f 146/245/1 96/237/1 103/240/1 142/246/1
f 99/242/1 100/247/1 106/248/1 105/243/1
f 98/249/7 97/250/7 108/251/7 107/252/7
f 147/253/7 93/233/7 101/236/7 143/254/7
f 148/255/7 98/249/7 107/252/7 144/256/7
f 116/219/19 115/257/19 123/258/19 124/259/19
f 152/260/20 110/261/20 118/262/20 156/263/20
f 100/264/5 99/265/5 113/266/5 114/267/5
f 145/268/3 95/225/3 112/228/3 149/269/3
f 94/270/10 93/271/10 109/272/10 110/261/10
f 148/273/8 94/270/8 110/261/8 152/260/8
f 97/218/5 98/274/5 115/257/5 116/219/5
f 146/275/8 100/264/8 114/267/8 150/276/8
f 155/277/3 124/278/3 132/279/3 159/280/3
f 120/281/10 119/282/10 127/283/10 128/284/10
f 150/276/21 114/267/21 122/285/21 154/286/21
f 112/228/22 111/227/22 119/287/22 120/288/22
f 151/220/23 116/219/23 124/259/23 155/289/23
f 114/267/24 113/266/24 121/290/24 122/285/24
f 149/269/25 112/228/25 120/288/25 153/291/25
f 110/261/26 109/272/26 117/292/26 118/262/26
f 130/293/27 129/294/27 137/295/27 138/296/27
f 159/297/28 132/298/28 140/299/28 163/300/28
f 122/301/5 121/302/5 129/303/5 130/304/5
f 153/305/3 120/281/3 128/284/3 157/306/3
f 118/307/10 117/308/10 125/309/10 126/310/10
f 156/311/8 118/307/8 126/310/8 160/312/8
f 124/278/5 123/313/5 131/314/5 132/279/5
f 154/315/8 122/301/8 130/304/8 158/316/8
f 161/317/1 162/318/1 138/296/1 137/295/1
f 163/300/7 164/319/7 134/320/7 133/321/7
f 157/322/29 128/323/29 136/324/29 161/317/29
f 126/325/30 125/326/30 133/321/30 134/320/30
f 160/327/31 126/328/31 134/320/31 164/319/31
f 132/329/32 131/330/32 139/331/32 140/299/32
f 158/332/33 130/333/33 138/296/33 162/318/33
f 128/334/34 127/335/34 135/336/34 136/324/34
f 127/337/33 158/332/33 162/318/33 135/336/33
f 131/338/31 160/327/31 164/319/31 139/331/31
f 129/339/29 157/322/29 161/317/29 137/295/29
f 140/299/7 139/331/7 164/319/7 163/300/7
f 136/324/1 135/336/1 162/318/1 161/317/1
f 119/282/8 154/315/8 158/316/8 127/283/8
f 123/313/8 156/311/8 160/312/8 131/314/8
f 121/302/3 153/305/3 157/306/3 129/303/3
f 125/340/28 159/297/28 163/300/28 133/321/28
f 113/266/25 149/341/25 153/342/25 121/290/25
f 109/272/23 151/343/23 155/344/23 117/292/23
f 111/227/21 150/276/21 154/286/21 119/287/21
f 117/308/3 155/277/3 159/280/3 125/309/3
f 96/226/8 146/275/8 150/276/8 111/227/8
f 98/274/8 148/273/8 152/260/8 115/257/8
f 99/265/3 145/345/3 149/341/3 113/266/3
f 115/257/20 152/260/20 156/263/20 123/258/20
f 94/234/7 148/255/7 144/256/7 102/235/7
f 97/250/7 147/253/7 143/254/7 108/251/7
f 100/247/1 146/245/1 142/246/1 106/248/1
f 95/238/1 145/241/1 141/244/1 104/239/1
f 106/222/8 142/231/8 144/232/8 107/223/8
f 104/216/3 141/346/3 143/347/3 101/213/3
f 93/271/3 147/348/3 151/343/3 109/272/3
